<svg height="1080" width="1198" xmlns="http://www.w3.org/2000/svg"> 
<path d="M 0 0 L0 1 L0 2 L0 3 L0 4 L0 5 L0 6 L0 7 L0 8 L0 9 L0 10 L0 11 L0 12 L0 13 L0 14 L0 15 L0 16 L0 17 L0 18 L0 19 L0 20 L0 21 L0 22 L0 23 L0 24 L0 25 L0 26 L0 27 L0 28 L0 29 L0 30 L0 31 L0 32 L0 33 L0 34 L0 35 L0 36 L0 37 L0 38 L0 39 L0 40 L0 41 L0 42 L0 43 L0 44 L0 45 L0 46 L0 47 L0 48 L0 49 L0 50 L0 51 L0 52 L0 53 L0 54 L0 55 L0 56 L0 57 L0 58 L0 59 L0 60 L0 61 L0 62 L0 63 L0 64 L0 65 L0 66 L0 67 L0 68 L0 69 L0 70 L0 71 L0 72 L0 73 L0 74 L0 75 L0 76 L0 77 L0 78 L0 79 L0 80 L0 81 L0 82 L0 83 L0 84 L0 85 L0 86 L0 87 L0 88 L0 89 L0 90 L0 91 L0 92 L0 93 L0 94 L0 95 L0 96 L0 97 L0 98 L0 99 L0 100 L0 101 L0 102 L0 103 L0 104 L0 105 L0 106 L0 107 L0 108 L0 109 L0 110 L0 111 L0 112 L0 113 L0 114 L0 115 L0 116 L0 117 L0 118 L0 119 L0 120 L0 121 L0 122 L0 123 L0 124 L0 125 L0 126 L0 127 L0 128 L0 129 L0 130 L0 131 L0 132 L0 133 L0 134 L0 135 L0 136 L0 137 L0 138 L0 139 L0 140 L0 141 L0 142 L0 143 L0 144 L0 145 L0 146 L0 147 L0 148 L0 149 L0 150 L0 151 L0 152 L0 153 L0 154 L0 155 L0 156 L0 157 L0 158 L0 159 L0 160 L0 161 L0 162 L0 163 L0 164 L0 165 L0 166 L0 167 L0 168 L0 169 L0 170 L0 171 L0 172 L0 173 L0 174 L0 175 L0 176 L0 177 L0 178 L0 179 L0 180 L0 181 L0 182 L0 183 L0 184 L0 185 L0 186 L0 187 L0 188 L0 189 L0 190 L0 191 L0 192 L0 193 L0 194 L0 195 L0 196 L0 197 L0 198 L0 199 L0 200 L0 201 L0 202 L0 203 L0 204 L0 205 L0 206 L0 207 L0 208 L0 209 L0 210 L0 211 L0 212 L0 213 L0 214 L0 215 L0 216 L0 217 L0 218 L0 219 L0 220 L0 221 L0 222 L0 223 L0 224 L0 225 L0 226 L0 227 L0 228 L0 229 L0 230 L0 231 L0 232 L0 233 L0 234 L0 235 L0 236 L0 237 L0 238 L0 239 L0 240 L0 241 L0 242 L0 243 L0 244 L0 245 L0 246 L0 247 L0 248 L0 249 L0 250 L0 251 L0 252 L0 253 L0 254 L0 255 L0 256 L0 257 L0 258 L0 259 L0 260 L0 261 L0 262 L0 263 L0 264 L0 265 L0 266 L0 267 L0 268 L0 269 L0 270 L0 271 L0 272 L0 273 L0 274 L0 275 L0 276 L0 277 L0 278 L0 279 L0 280 L0 281 L0 282 L0 283 L0 284 L0 285 L0 286 L0 287 L0 288 L0 289 L0 290 L0 291 L0 292 L0 293 L0 294 L0 295 L0 296 L0 297 L0 298 L0 299 L0 300 L0 301 L0 302 L0 303 L0 304 L0 305 L0 306 L0 307 L0 308 L0 309 L0 310 L0 311 L0 312 L0 313 L0 314 L0 315 L0 316 L0 317 L0 318 L0 319 L0 320 L0 321 L0 322 L0 323 L0 324 L0 325 L0 326 L0 327 L0 328 L0 329 L0 330 L0 331 L0 332 L0 333 L0 334 L0 335 L0 336 L0 337 L0 338 L0 339 L0 340 L0 341 L0 342 L0 343 L0 344 L0 345 L0 346 L0 347 L0 348 L0 349 L0 350 L0 351 L0 352 L0 353 L0 354 L0 355 L0 356 L0 357 L0 358 L0 359 L0 360 L0 361 L0 362 L0 363 L0 364 L0 365 L0 366 L0 367 L0 368 L0 369 L0 370 L0 371 L0 372 L0 373 L0 374 L0 375 L0 376 L0 377 L0 378 L0 379 L0 380 L0 381 L0 382 L0 383 L0 384 L0 385 L0 386 L0 387 L0 388 L0 389 L0 390 L0 391 L0 392 L0 393 L0 394 L0 395 L0 396 L0 397 L0 398 L0 399 L0 400 L0 401 L0 402 L0 403 L0 404 L0 405 L0 406 L0 407 L0 408 L0 409 L0 410 L0 411 L0 412 L0 413 L0 414 L0 415 L0 416 L0 417 L0 418 L0 419 L0 420 L0 421 L0 422 L0 423 L0 424 L0 425 L0 426 L0 427 L0 428 L0 429 L0 430 L0 431 L0 432 L0 433 L0 434 L0 435 L0 436 L0 437 L0 438 L0 439 L0 440 L0 441 L0 442 L0 443 L0 444 L0 445 L0 446 L0 447 L0 448 L0 449 L0 450 L0 451 L0 452 L0 453 L0 454 L0 455 L0 456 L0 457 L0 458 L0 459 L0 460 L0 461 L0 462 L0 463 L0 464 L0 465 L0 466 L0 467 L0 468 L0 469 L0 470 L0 471 L0 472 L0 473 L0 474 L0 475 L0 476 L0 477 L0 478 L0 479 L0 480 L0 481 L0 482 L0 483 L0 484 L0 485 L0 486 L0 487 L0 488 L0 489 L0 490 L0 491 L0 492 L0 493 L0 494 L0 495 L0 496 L0 497 L0 498 L0 499 L0 500 L0 501 L0 502 L0 503 L0 504 L0 505 L0 506 L0 507 L0 508 L0 509 L0 510 L0 511 L0 512 L0 513 L0 514 L0 515 L0 516 L0 517 L0 518 L0 519 L0 520 L0 521 L0 522 L0 523 L0 524 L0 525 L0 526 L0 527 L0 528 L0 529 L0 530 L0 531 L0 532 L0 533 L0 534 L0 535 L0 536 L0 537 L0 538 L0 539 L0 540 L0 541 L0 542 L0 543 L0 544 L0 545 L0 546 L0 547 L0 548 L0 549 L0 550 L0 551 L0 552 L0 553 L0 554 L0 555 L0 556 L0 557 L0 558 L0 559 L0 560 L0 561 L0 562 L0 563 L0 564 L0 565 L0 566 L0 567 L0 568 L0 569 L0 570 L0 571 L0 572 L0 573 L0 574 L0 575 L0 576 L0 577 L0 578 L0 579 L0 580 L0 581 L0 582 L0 583 L0 584 L0 585 L0 586 L0 587 L0 588 L0 589 L0 590 L0 591 L0 592 L0 593 L0 594 L0 595 L0 596 L0 597 L0 598 L0 599 L0 600 L0 601 L0 602 L0 603 L0 604 L0 605 L0 606 L0 607 L0 608 L0 609 L0 610 L0 611 L0 612 L0 613 L0 614 L0 615 L0 616 L0 617 L0 618 L0 619 L0 620 L0 621 L0 622 L0 623 L0 624 L0 625 L0 626 L0 627 L0 628 L0 629 L0 630 L0 631 L0 632 L0 633 L0 634 L0 635 L0 636 L0 637 L0 638 L0 639 L0 640 L0 641 L0 642 L0 643 L0 644 L0 645 L0 646 L0 647 L0 648 L0 649 L0 650 L0 651 L0 652 L0 653 L0 654 L0 655 L0 656 L0 657 L0 658 L0 659 L0 660 L0 661 L0 662 L0 663 L0 664 L0 665 L0 666 L0 667 L0 668 L0 669 L0 670 L0 671 L0 672 L0 673 L0 674 L0 675 L0 676 L0 677 L0 678 L0 679 L0 680 L0 681 L0 682 L0 683 L0 684 L0 685 L0 686 L0 687 L0 688 L0 689 L0 690 L0 691 L0 692 L0 693 L0 694 L0 695 L0 696 L0 697 L0 698 L0 699 L0 700 L0 701 L0 702 L0 703 L0 704 L0 705 L0 706 L0 707 L0 708 L0 709 L0 710 L0 711 L0 712 L0 713 L0 714 L0 715 L0 716 L0 717 L0 718 L0 719 L0 720 L0 721 L0 722 L0 723 L0 724 L0 725 L0 726 L0 727 L0 728 L0 729 L0 730 L0 731 L0 732 L0 733 L0 734 L0 735 L0 736 L0 737 L0 738 L0 739 L0 740 L0 741 L0 742 L0 743 L0 744 L0 745 L0 746 L0 747 L0 748 L0 749 L0 750 L0 751 L0 752 L0 753 L0 754 L0 755 L0 756 L0 757 L0 758 L0 759 L0 760 L0 761 L0 762 L0 763 L0 764 L0 765 L0 766 L0 767 L0 768 L0 769 L0 770 L0 771 L0 772 L0 773 L0 774 L0 775 L0 776 L0 777 L0 778 L0 779 L0 780 L0 781 L0 782 L0 783 L0 784 L0 785 L0 786 L0 787 L0 788 L0 789 L0 790 L0 791 L0 792 L0 793 L0 794 L0 795 L0 796 L0 797 L0 798 L0 799 L0 800 L0 801 L0 802 L0 803 L0 804 L0 805 L0 806 L0 807 L0 808 L0 809 L0 810 L0 811 L0 812 L0 813 L0 814 L0 815 L0 816 L0 817 L0 818 L0 819 L0 820 L0 821 L0 822 L0 823 L0 824 L0 825 L0 826 L0 827 L0 828 L0 829 L0 830 L0 831 L0 832 L0 833 L0 834 L0 835 L0 836 L0 837 L0 838 L0 839 L0 840 L0 841 L0 842 L0 843 L0 844 L0 845 L0 846 L0 847 L0 848 L0 849 L0 850 L0 851 L0 852 L0 853 L0 854 L0 855 L0 856 L0 857 L0 858 L0 859 L0 860 L0 861 L0 862 L0 863 L0 864 L0 865 L0 866 L0 867 L0 868 L0 869 L0 870 L0 871 L0 872 L0 873 L0 874 L0 875 L0 876 L0 877 L0 878 L0 879 L0 880 L0 881 L0 882 L0 883 L0 884 L0 885 L0 886 L0 887 L0 888 L0 889 L0 890 L0 891 L0 892 L0 893 L0 894 L0 895 L0 896 L0 897 L0 898 L0 899 L0 900 L0 901 L0 902 L0 903 L0 904 L0 905 L0 906 L0 907 L0 908 L0 909 L0 910 L0 911 L0 912 L0 913 L0 914 L0 915 L0 916 L0 917 L0 918 L0 919 L0 920 L0 921 L0 922 L0 923 L0 924 L0 925 L0 926 L0 927 L0 928 L0 929 L0 930 L0 931 L0 932 L0 933 L0 934 L0 935 L0 936 L0 937 L0 938 L0 939 L0 940 L0 941 L0 942 L0 943 L0 944 L0 945 L0 946 L0 947 L0 948 L0 949 L0 950 L0 951 L0 952 L0 953 L0 954 L0 955 L0 956 L0 957 L0 958 L0 959 L0 960 L0 961 L0 962 L0 963 L0 964 L0 965 L0 966 L0 967 L0 968 L0 969 L0 970 L0 971 L0 972 L0 973 L0 974 L0 975 L0 976 L0 977 L0 978 L0 979 L0 980 L0 981 L0 982 L0 983 L0 984 L0 985 L0 986 L0 987 L0 988 L0 989 L0 990 L0 991 L0 992 L0 993 L0 994 L0 995 L0 996 L0 997 L0 998 L0 999 L0 1000 L0 1001 L0 1002 L0 1003 L0 1004 L0 1005 L0 1006 L0 1007 L0 1008 L0 1009 L0 1010 L0 1011 L0 1012 L0 1013 L0 1014 L0 1015 L0 1016 L0 1017 L0 1018 L0 1019 L0 1020 L0 1021 L0 1022 L0 1023 L0 1024 L0 1025 L0 1026 L0 1027 L0 1028 L0 1029 L0 1030 L0 1031 L0 1032 L0 1033 L0 1034 L0 1035 L0 1036 L0 1037 L0 1038 L0 1039 L0 1040 L0 1041 L0 1042 L0 1043 L0 1044 L0 1045 L0 1046 L0 1047 L0 1048 L0 1049 L0 1050 L0 1051 L0 1052 L0 1053 L0 1054 L0 1055 L0 1056 L0 1057 L0 1058 L0 1059 L0 1060 L0 1061 L0 1062 L0 1063 L0 1064 L0 1065 L0 1066 L0 1067 L0 1068 L1 1069 L0 1070 L0 1071 L0 1072 L0 1073 L0 1074 L0 1075 L0 1076 L0 1077 L0 1078 L0 1079 L1 1079 L2 1079 L3 1079 L4 1079 L5 1079 L6 1079 L7 1079 L8 1079 L9 1079 L10 1079 L11 1079 L12 1079 L13 1079 L14 1079 L15 1079 L16 1079 L17 1079 L18 1079 L19 1079 L20 1079 L21 1079 L22 1079 L23 1079 L24 1079 L25 1079 L26 1079 L27 1079 L28 1079 L29 1079 L30 1079 L31 1079 L32 1079 L33 1079 L34 1079 L35 1079 L36 1079 L37 1079 L38 1079 L39 1079 L40 1079 L41 1079 L42 1079 L43 1079 L44 1079 L45 1079 L46 1079 L47 1079 L48 1079 L49 1079 L50 1079 L51 1079 L52 1079 L53 1079 L54 1079 L55 1079 L56 1079 L57 1079 L58 1079 L59 1079 L60 1079 L61 1079 L62 1079 L63 1079 L64 1079 L65 1079 L66 1079 L67 1079 L68 1079 L69 1079 L70 1079 L71 1079 L72 1079 L73 1079 L74 1079 L75 1079 L76 1079 L77 1079 L78 1079 L79 1079 L80 1079 L81 1079 L82 1079 L83 1079 L84 1079 L85 1079 L86 1079 L87 1079 L88 1079 L89 1079 L90 1079 L91 1079 L92 1079 L93 1079 L94 1079 L95 1079 L96 1079 L97 1079 L98 1079 L99 1079 L100 1079 L101 1079 L102 1079 L103 1079 L104 1079 L105 1079 L106 1079 L107 1079 L108 1079 L109 1079 L110 1079 L111 1079 L112 1079 L113 1079 L114 1079 L115 1079 L116 1079 L117 1079 L118 1079 L119 1079 L120 1079 L121 1079 L122 1079 L123 1079 L124 1079 L125 1079 L126 1079 L127 1079 L128 1079 L129 1079 L130 1079 L131 1079 L132 1079 L133 1079 L134 1079 L135 1079 L136 1079 L137 1079 L138 1079 L139 1079 L140 1079 L141 1079 L142 1079 L143 1079 L144 1079 L145 1079 L146 1079 L147 1079 L148 1079 L149 1079 L150 1079 L151 1079 L152 1079 L153 1079 L154 1079 L155 1079 L156 1079 L157 1079 L158 1079 L159 1079 L160 1079 L161 1079 L162 1079 L163 1079 L164 1079 L165 1079 L166 1079 L167 1079 L168 1079 L169 1079 L170 1079 L171 1079 L172 1079 L173 1079 L174 1079 L175 1079 L176 1079 L177 1079 L178 1079 L179 1079 L180 1079 L181 1079 L182 1079 L183 1079 L184 1079 L185 1079 L186 1079 L187 1079 L188 1079 L189 1079 L190 1079 L191 1079 L192 1079 L193 1079 L194 1079 L195 1079 L196 1079 L197 1079 L198 1079 L199 1079 L200 1079 L201 1079 L202 1079 L203 1079 L204 1079 L205 1079 L206 1079 L207 1079 L208 1079 L209 1079 L210 1079 L211 1079 L212 1079 L213 1079 L214 1079 L215 1079 L216 1079 L217 1079 L218 1079 L219 1079 L220 1079 L221 1079 L222 1079 L223 1079 L224 1079 L225 1079 L226 1079 L227 1079 L228 1079 L229 1079 L230 1079 L231 1079 L232 1079 L233 1079 L234 1079 L235 1079 L236 1079 L237 1079 L238 1079 L239 1079 L240 1079 L241 1079 L242 1079 L243 1079 L244 1079 L245 1079 L246 1079 L247 1079 L248 1079 L249 1079 L250 1079 L251 1079 L252 1079 L253 1079 L254 1079 L255 1079 L256 1079 L257 1079 L258 1079 L259 1079 L260 1079 L261 1079 L262 1079 L263 1079 L264 1079 L265 1079 L266 1079 L267 1079 L268 1079 L269 1079 L270 1079 L271 1079 L272 1079 L273 1079 L274 1079 L275 1079 L276 1079 L277 1079 L278 1079 L279 1079 L280 1079 L281 1079 L282 1079 L283 1079 L284 1079 L285 1079 L286 1079 L287 1079 L288 1079 L289 1079 L290 1079 L291 1079 L292 1079 L293 1079 L294 1079 L295 1079 L296 1079 L297 1079 L298 1079 L299 1079 L300 1079 L301 1079 L302 1079 L303 1079 L304 1079 L305 1079 L306 1079 L307 1079 L308 1079 L309 1079 L310 1079 L311 1079 L312 1079 L313 1079 L314 1079 L315 1079 L316 1079 L317 1079 L318 1079 L319 1079 L320 1079 L321 1079 L322 1079 L323 1079 L324 1079 L325 1079 L326 1079 L327 1079 L328 1079 L329 1079 L330 1079 L331 1079 L332 1079 L333 1079 L334 1079 L335 1079 L336 1079 L337 1079 L338 1079 L339 1079 L340 1079 L341 1079 L342 1079 L343 1079 L344 1079 L345 1079 L346 1079 L347 1079 L348 1079 L349 1079 L350 1079 L351 1079 L352 1079 L353 1079 L354 1079 L355 1079 L356 1079 L357 1079 L358 1079 L359 1079 L360 1079 L361 1079 L362 1079 L363 1079 L364 1079 L365 1079 L366 1079 L367 1079 L368 1079 L369 1079 L370 1079 L371 1079 L372 1079 L373 1079 L374 1079 L375 1079 L376 1079 L377 1079 L378 1079 L379 1079 L380 1079 L381 1079 L382 1079 L383 1079 L384 1079 L385 1079 L386 1079 L387 1079 L388 1079 L389 1079 L390 1079 L391 1079 L392 1079 L393 1079 L394 1079 L395 1079 L396 1079 L397 1079 L398 1079 L399 1079 L400 1079 L401 1079 L402 1079 L403 1079 L404 1079 L405 1079 L406 1079 L407 1079 L408 1079 L409 1079 L410 1079 L411 1079 L412 1079 L413 1079 L414 1079 L415 1079 L416 1079 L417 1079 L418 1079 L419 1079 L420 1079 L421 1079 L422 1079 L423 1079 L424 1079 L425 1079 L426 1079 L427 1079 L428 1079 L429 1079 L430 1079 L431 1079 L432 1079 L433 1079 L434 1079 L435 1079 L436 1079 L437 1079 L438 1079 L439 1079 L440 1079 L441 1079 L442 1079 L443 1079 L444 1079 L445 1079 L446 1079 L447 1079 L448 1079 L449 1079 L450 1079 L451 1079 L452 1079 L453 1079 L454 1079 L455 1079 L456 1079 L457 1079 L458 1079 L459 1079 L460 1079 L461 1079 L462 1079 L463 1079 L464 1079 L465 1079 L466 1079 L467 1079 L468 1079 L469 1079 L470 1079 L471 1079 L472 1079 L473 1079 L474 1079 L475 1079 L476 1079 L477 1079 L478 1079 L479 1079 L480 1079 L481 1079 L482 1079 L483 1079 L484 1079 L485 1079 L486 1079 L487 1079 L488 1079 L489 1079 L490 1079 L491 1079 L492 1079 L493 1079 L494 1079 L495 1079 L496 1079 L497 1079 L498 1079 L499 1079 L500 1079 L501 1079 L502 1079 L503 1079 L504 1079 L505 1079 L506 1079 L507 1079 L508 1079 L509 1079 L510 1079 L511 1079 L512 1079 L513 1079 L514 1079 L515 1079 L516 1079 L517 1079 L518 1079 L519 1079 L520 1079 L521 1079 L522 1079 L523 1079 L524 1079 L525 1079 L526 1079 L527 1079 L528 1079 L529 1079 L530 1079 L531 1079 L532 1079 L533 1079 L534 1079 L535 1079 L536 1079 L537 1079 L538 1079 L539 1079 L540 1079 L541 1079 L542 1079 L543 1079 L544 1079 L545 1079 L546 1079 L547 1079 L548 1079 L549 1079 L550 1079 L551 1079 L552 1079 L553 1079 L554 1079 L555 1079 L556 1079 L557 1079 L558 1079 L559 1079 L560 1079 L561 1079 L562 1079 L563 1079 L564 1079 L565 1079 L566 1079 L567 1079 L568 1079 L569 1079 L570 1079 L571 1079 L572 1079 L573 1079 L574 1079 L575 1079 L576 1079 L577 1079 L578 1079 L579 1079 L580 1079 L581 1079 L582 1079 L583 1079 L584 1079 L585 1079 L586 1079 L587 1079 L588 1079 L589 1079 L590 1079 L591 1079 L592 1079 L593 1079 L594 1079 L595 1079 L596 1079 L597 1079 L598 1079 L599 1079 L600 1079 L601 1079 L602 1079 L603 1079 L604 1079 L605 1079 L606 1079 L607 1079 L608 1079 L609 1079 L610 1079 L611 1079 L612 1079 L613 1079 L614 1079 L615 1079 L616 1079 L617 1079 L618 1079 L619 1079 L620 1079 L621 1079 L622 1079 L623 1079 L624 1079 L625 1079 L626 1079 L627 1079 L628 1079 L629 1079 L630 1079 L631 1079 L632 1079 L633 1079 L634 1079 L635 1079 L636 1079 L637 1079 L638 1079 L639 1079 L640 1079 L641 1079 L642 1079 L643 1079 L644 1079 L645 1079 L646 1079 L647 1079 L648 1079 L649 1079 L650 1079 L651 1079 L652 1079 L653 1079 L654 1079 L655 1079 L656 1079 L657 1079 L658 1079 L659 1079 L660 1079 L661 1079 L662 1079 L663 1079 L664 1079 L665 1079 L666 1079 L667 1079 L668 1079 L669 1079 L670 1079 L671 1079 L672 1079 L673 1079 L674 1079 L675 1079 L676 1079 L677 1079 L678 1079 L679 1079 L680 1079 L681 1079 L682 1079 L683 1079 L684 1079 L685 1079 L686 1079 L687 1079 L688 1079 L689 1079 L690 1079 L691 1079 L692 1079 L693 1079 L694 1079 L695 1079 L696 1079 L697 1079 L698 1079 L699 1079 L700 1079 L701 1079 L702 1079 L703 1079 L704 1079 L705 1079 L706 1079 L707 1079 L708 1079 L709 1079 L710 1079 L711 1079 L712 1079 L713 1079 L714 1079 L715 1079 L716 1079 L717 1079 L718 1079 L719 1079 L720 1079 L721 1079 L722 1079 L723 1079 L724 1079 L725 1079 L726 1079 L727 1079 L728 1079 L729 1079 L730 1079 L731 1079 L732 1079 L733 1079 L734 1079 L735 1079 L736 1079 L737 1079 L738 1079 L739 1079 L740 1079 L741 1079 L742 1079 L743 1079 L744 1079 L745 1079 L746 1079 L747 1079 L748 1079 L749 1079 L750 1079 L751 1079 L752 1079 L753 1079 L754 1079 L755 1079 L756 1079 L757 1079 L758 1079 L759 1079 L760 1079 L761 1079 L762 1079 L763 1079 L764 1079 L765 1079 L766 1079 L767 1079 L768 1079 L769 1079 L770 1079 L771 1079 L772 1079 L773 1079 L774 1079 L775 1079 L776 1079 L777 1079 L778 1079 L779 1079 L780 1079 L781 1079 L782 1079 L783 1079 L784 1079 L785 1079 L786 1079 L787 1079 L788 1079 L789 1079 L790 1079 L791 1079 L792 1079 L793 1079 L794 1079 L795 1079 L796 1079 L797 1079 L798 1079 L799 1079 L800 1079 L801 1079 L802 1079 L803 1079 L804 1079 L805 1079 L806 1079 L807 1079 L808 1079 L809 1079 L810 1079 L811 1079 L812 1079 L813 1079 L814 1079 L815 1079 L816 1079 L817 1079 L818 1079 L819 1079 L820 1079 L821 1079 L822 1079 L823 1079 L824 1079 L825 1079 L826 1079 L827 1079 L828 1079 L829 1079 L830 1079 L831 1079 L832 1079 L833 1079 L834 1079 L835 1079 L836 1079 L837 1079 L838 1079 L839 1079 L840 1079 L841 1079 L842 1079 L843 1079 L844 1079 L845 1079 L846 1079 L847 1079 L848 1079 L849 1079 L850 1079 L851 1079 L852 1079 L853 1079 L854 1079 L855 1079 L856 1079 L857 1079 L858 1079 L859 1079 L860 1079 L861 1079 L862 1079 L863 1079 L864 1079 L865 1079 L866 1079 L867 1079 L868 1079 L869 1079 L870 1079 L871 1079 L872 1079 L873 1079 L874 1079 L875 1079 L876 1079 L877 1079 L878 1079 L879 1079 L880 1079 L881 1079 L882 1079 L883 1079 L884 1079 L885 1079 L886 1079 L887 1079 L888 1079 L889 1079 L890 1079 L891 1079 L892 1079 L893 1079 L894 1079 L895 1079 L896 1079 L897 1079 L898 1079 L899 1079 L900 1079 L901 1079 L902 1079 L903 1079 L904 1079 L905 1079 L906 1079 L907 1079 L908 1079 L909 1079 L910 1079 L911 1079 L912 1079 L913 1079 L914 1079 L915 1079 L916 1079 L917 1079 L918 1079 L919 1079 L920 1079 L921 1079 L922 1079 L923 1079 L924 1079 L925 1079 L926 1079 L927 1079 L928 1079 L929 1079 L930 1079 L931 1079 L932 1079 L933 1079 L934 1079 L935 1079 L936 1079 L937 1079 L938 1079 L939 1079 L940 1079 L941 1079 L942 1079 L943 1079 L944 1079 L945 1079 L946 1079 L947 1079 L948 1079 L949 1079 L950 1079 L951 1079 L952 1079 L953 1079 L954 1079 L955 1079 L956 1079 L957 1079 L958 1079 L959 1079 L960 1079 L961 1079 L962 1079 L963 1079 L964 1079 L965 1079 L966 1079 L967 1079 L968 1079 L969 1079 L970 1079 L971 1079 L972 1079 L973 1079 L974 1079 L975 1079 L976 1079 L977 1079 L978 1079 L979 1079 L980 1079 L981 1079 L982 1079 L983 1079 L984 1079 L985 1079 L986 1079 L987 1079 L988 1079 L989 1079 L990 1079 L991 1079 L992 1079 L993 1079 L994 1079 L995 1079 L996 1079 L997 1079 L998 1079 L999 1079 L1000 1079 L1001 1079 L1002 1079 L1003 1079 L1004 1079 L1005 1079 L1006 1079 L1007 1079 L1008 1079 L1009 1079 L1010 1079 L1011 1079 L1012 1079 L1013 1079 L1014 1079 L1015 1079 L1016 1079 L1017 1079 L1018 1079 L1019 1079 L1020 1079 L1021 1079 L1022 1079 L1023 1079 L1024 1079 L1025 1079 L1026 1079 L1027 1079 L1028 1079 L1029 1079 L1030 1079 L1031 1079 L1032 1079 L1033 1079 L1034 1079 L1035 1079 L1036 1079 L1037 1079 L1038 1079 L1039 1079 L1040 1079 L1041 1079 L1042 1079 L1043 1079 L1044 1079 L1045 1079 L1046 1079 L1047 1079 L1048 1079 L1049 1079 L1050 1079 L1051 1079 L1052 1079 L1053 1079 L1054 1079 L1055 1079 L1056 1079 L1057 1079 L1058 1079 L1059 1079 L1060 1079 L1061 1079 L1062 1079 L1063 1079 L1064 1079 L1065 1079 L1066 1079 L1067 1079 L1068 1079 L1069 1079 L1070 1079 L1071 1079 L1072 1079 L1073 1079 L1074 1079 L1075 1079 L1076 1079 L1077 1079 L1078 1079 L1079 1079 L1080 1079 L1081 1079 L1082 1079 L1083 1079 L1084 1079 L1085 1079 L1086 1079 L1087 1079 L1088 1079 L1089 1079 L1090 1079 L1091 1079 L1092 1079 L1093 1079 L1094 1079 L1095 1079 L1096 1079 L1097 1079 L1098 1079 L1099 1079 L1100 1079 L1101 1079 L1102 1079 L1103 1079 L1104 1079 L1105 1079 L1106 1079 L1107 1079 L1108 1079 L1109 1079 L1110 1079 L1111 1079 L1112 1079 L1113 1079 L1114 1079 L1115 1079 L1116 1079 L1117 1079 L1118 1079 L1119 1079 L1120 1079 L1121 1079 L1122 1079 L1123 1079 L1124 1079 L1125 1079 L1126 1079 L1127 1079 L1128 1079 L1129 1079 L1130 1079 L1131 1079 L1132 1079 L1133 1079 L1134 1079 L1135 1079 L1136 1079 L1137 1079 L1138 1079 L1139 1079 L1140 1079 L1141 1079 L1142 1079 L1143 1079 L1144 1079 L1145 1079 L1146 1079 L1147 1079 L1148 1079 L1149 1079 L1150 1079 L1151 1079 L1152 1079 L1153 1079 L1154 1079 L1155 1079 L1156 1079 L1157 1079 L1158 1079 L1159 1079 L1160 1079 L1161 1079 L1162 1079 L1163 1079 L1164 1079 L1165 1079 L1166 1079 L1167 1079 L1168 1079 L1169 1079 L1170 1079 L1171 1079 L1172 1079 L1173 1079 L1174 1079 L1175 1079 L1176 1079 L1177 1079 L1178 1079 L1179 1079 L1180 1079 L1181 1079 L1182 1079 L1183 1079 L1184 1079 L1185 1079 L1186 1079 L1187 1079 L1188 1079 L1189 1079 L1190 1079 L1191 1079 L1192 1079 L1193 1079 L1194 1079 L1195 1079 L1196 1079 L1197 1079 L1197 1078 L1197 1077 L1197 1076 L1197 1075 L1197 1074 L1197 1073 L1197 1072 L1197 1071 L1197 1070 L1197 1069 L1197 1068 L1197 1067 L1197 1066 L1197 1065 L1197 1064 L1197 1063 L1197 1062 L1197 1061 L1197 1060 L1197 1059 L1197 1058 L1197 1057 L1197 1056 L1197 1055 L1197 1054 L1197 1053 L1197 1052 L1197 1051 L1197 1050 L1197 1049 L1197 1048 L1197 1047 L1197 1046 L1197 1045 L1197 1044 L1197 1043 L1197 1042 L1197 1041 L1197 1040 L1197 1039 L1197 1038 L1197 1037 L1197 1036 L1197 1035 L1197 1034 L1197 1033 L1197 1032 L1197 1031 L1197 1030 L1197 1029 L1197 1028 L1197 1027 L1197 1026 L1197 1025 L1197 1024 L1197 1023 L1197 1022 L1197 1021 L1197 1020 L1197 1019 L1197 1018 L1197 1017 L1197 1016 L1197 1015 L1197 1014 L1197 1013 L1197 1012 L1197 1011 L1197 1010 L1197 1009 L1197 1008 L1197 1007 L1197 1006 L1197 1005 L1197 1004 L1197 1003 L1197 1002 L1197 1001 L1197 1000 L1197 999 L1197 998 L1197 997 L1197 996 L1197 995 L1197 994 L1197 993 L1197 992 L1197 991 L1197 990 L1197 989 L1197 988 L1197 987 L1197 986 L1197 985 L1197 984 L1197 983 L1197 982 L1197 981 L1197 980 L1197 979 L1197 978 L1197 977 L1197 976 L1197 975 L1197 974 L1197 973 L1197 972 L1197 971 L1197 970 L1197 969 L1197 968 L1197 967 L1197 966 L1197 965 L1197 964 L1197 963 L1197 962 L1197 961 L1197 960 L1197 959 L1197 958 L1197 957 L1197 956 L1197 955 L1197 954 L1197 953 L1197 952 L1197 951 L1197 950 L1197 949 L1197 948 L1197 947 L1197 946 L1197 945 L1197 944 L1197 943 L1197 942 L1197 941 L1197 940 L1197 939 L1197 938 L1197 937 L1197 936 L1197 935 L1197 934 L1197 933 L1197 932 L1197 931 L1197 930 L1197 929 L1197 928 L1197 927 L1197 926 L1197 925 L1197 924 L1197 923 L1197 922 L1197 921 L1197 920 L1197 919 L1197 918 L1197 917 L1197 916 L1197 915 L1197 914 L1197 913 L1197 912 L1197 911 L1197 910 L1197 909 L1197 908 L1197 907 L1197 906 L1197 905 L1197 904 L1197 903 L1197 902 L1197 901 L1197 900 L1197 899 L1197 898 L1197 897 L1197 896 L1197 895 L1197 894 L1197 893 L1197 892 L1197 891 L1197 890 L1197 889 L1197 888 L1197 887 L1197 886 L1197 885 L1197 884 L1197 883 L1197 882 L1197 881 L1197 880 L1197 879 L1197 878 L1197 877 L1197 876 L1197 875 L1197 874 L1197 873 L1197 872 L1197 871 L1197 870 L1197 869 L1197 868 L1197 867 L1197 866 L1197 865 L1197 864 L1197 863 L1197 862 L1197 861 L1197 860 L1197 859 L1197 858 L1197 857 L1197 856 L1197 855 L1197 854 L1197 853 L1197 852 L1197 851 L1197 850 L1197 849 L1197 848 L1197 847 L1197 846 L1197 845 L1197 844 L1197 843 L1197 842 L1197 841 L1197 840 L1197 839 L1197 838 L1197 837 L1197 836 L1197 835 L1197 834 L1197 833 L1197 832 L1197 831 L1197 830 L1197 829 L1197 828 L1197 827 L1197 826 L1197 825 L1197 824 L1197 823 L1197 822 L1197 821 L1197 820 L1197 819 L1197 818 L1197 817 L1197 816 L1197 815 L1197 814 L1197 813 L1197 812 L1197 811 L1197 810 L1197 809 L1197 808 L1197 807 L1197 806 L1197 805 L1197 804 L1197 803 L1197 802 L1197 801 L1197 800 L1197 799 L1197 798 L1197 797 L1197 796 L1197 795 L1197 794 L1197 793 L1197 792 L1197 791 L1197 790 L1197 789 L1197 788 L1197 787 L1197 786 L1197 785 L1197 784 L1197 783 L1197 782 L1197 781 L1197 780 L1197 779 L1197 778 L1197 777 L1197 776 L1197 775 L1197 774 L1197 773 L1197 772 L1197 771 L1197 770 L1197 769 L1197 768 L1197 767 L1197 766 L1197 765 L1197 764 L1197 763 L1197 762 L1197 761 L1197 760 L1197 759 L1197 758 L1197 757 L1197 756 L1197 755 L1197 754 L1197 753 L1197 752 L1197 751 L1197 750 L1197 749 L1197 748 L1197 747 L1197 746 L1197 745 L1197 744 L1197 743 L1197 742 L1197 741 L1197 740 L1197 739 L1197 738 L1197 737 L1197 736 L1197 735 L1197 734 L1197 733 L1197 732 L1197 731 L1197 730 L1197 729 L1197 728 L1197 727 L1197 726 L1197 725 L1197 724 L1197 723 L1197 722 L1197 721 L1197 720 L1197 719 L1197 718 L1197 717 L1197 716 L1197 715 L1197 714 L1197 713 L1197 712 L1197 711 L1197 710 L1197 709 L1197 708 L1197 707 L1197 706 L1197 705 L1197 704 L1197 703 L1197 702 L1197 701 L1197 700 L1197 699 L1197 698 L1197 697 L1197 696 L1197 695 L1197 694 L1197 693 L1197 692 L1197 691 L1197 690 L1197 689 L1197 688 L1197 687 L1197 686 L1197 685 L1197 684 L1197 683 L1197 682 L1197 681 L1197 680 L1197 679 L1197 678 L1197 677 L1197 676 L1197 675 L1197 674 L1197 673 L1197 672 L1197 671 L1197 670 L1197 669 L1197 668 L1197 667 L1197 666 L1197 665 L1197 664 L1197 663 L1197 662 L1197 661 L1197 660 L1197 659 L1197 658 L1197 657 L1197 656 L1197 655 L1197 654 L1197 653 L1197 652 L1197 651 L1197 650 L1197 649 L1197 648 L1197 647 L1197 646 L1197 645 L1197 644 L1197 643 L1197 642 L1197 641 L1197 640 L1197 639 L1197 638 L1197 637 L1197 636 L1197 635 L1197 634 L1197 633 L1197 632 L1197 631 L1197 630 L1197 629 L1197 628 L1197 627 L1197 626 L1197 625 L1197 624 L1197 623 L1197 622 L1197 621 L1197 620 L1197 619 L1197 618 L1197 617 L1197 616 L1197 615 L1197 614 L1197 613 L1197 612 L1197 611 L1197 610 L1197 609 L1197 608 L1197 607 L1197 606 L1197 605 L1197 604 L1197 603 L1197 602 L1197 601 L1197 600 L1197 599 L1197 598 L1197 597 L1197 596 L1197 595 L1197 594 L1197 593 L1197 592 L1197 591 L1197 590 L1197 589 L1197 588 L1197 587 L1197 586 L1197 585 L1197 584 L1197 583 L1197 582 L1197 581 L1197 580 L1197 579 L1197 578 L1197 577 L1197 576 L1197 575 L1197 574 L1197 573 L1197 572 L1197 571 L1197 570 L1197 569 L1197 568 L1197 567 L1197 566 L1197 565 L1197 564 L1197 563 L1197 562 L1197 561 L1197 560 L1197 559 L1197 558 L1197 557 L1197 556 L1197 555 L1197 554 L1197 553 L1197 552 L1197 551 L1197 550 L1197 549 L1197 548 L1197 547 L1197 546 L1197 545 L1197 544 L1197 543 L1197 542 L1197 541 L1197 540 L1197 539 L1197 538 L1197 537 L1197 536 L1197 535 L1197 534 L1197 533 L1197 532 L1197 531 L1197 530 L1197 529 L1197 528 L1197 527 L1197 526 L1197 525 L1197 524 L1197 523 L1197 522 L1197 521 L1197 520 L1197 519 L1197 518 L1197 517 L1197 516 L1197 515 L1197 514 L1197 513 L1197 512 L1197 511 L1197 510 L1197 509 L1197 508 L1197 507 L1197 506 L1197 505 L1197 504 L1197 503 L1197 502 L1197 501 L1197 500 L1197 499 L1197 498 L1197 497 L1197 496 L1197 495 L1197 494 L1197 493 L1197 492 L1197 491 L1197 490 L1197 489 L1197 488 L1197 487 L1197 486 L1197 485 L1197 484 L1197 483 L1197 482 L1197 481 L1197 480 L1197 479 L1197 478 L1197 477 L1197 476 L1197 475 L1197 474 L1197 473 L1197 472 L1197 471 L1197 470 L1197 469 L1197 468 L1197 467 L1197 466 L1197 465 L1197 464 L1197 463 L1197 462 L1197 461 L1197 460 L1197 459 L1197 458 L1197 457 L1197 456 L1197 455 L1197 454 L1197 453 L1197 452 L1197 451 L1197 450 L1197 449 L1197 448 L1197 447 L1197 446 L1197 445 L1197 444 L1197 443 L1197 442 L1197 441 L1197 440 L1197 439 L1197 438 L1197 437 L1197 436 L1197 435 L1197 434 L1197 433 L1197 432 L1197 431 L1197 430 L1197 429 L1197 428 L1197 427 L1197 426 L1197 425 L1197 424 L1197 423 L1197 422 L1197 421 L1197 420 L1197 419 L1197 418 L1197 417 L1197 416 L1197 415 L1197 414 L1197 413 L1197 412 L1197 411 L1197 410 L1197 409 L1197 408 L1197 407 L1197 406 L1197 405 L1197 404 L1197 403 L1197 402 L1197 401 L1197 400 L1197 399 L1197 398 L1197 397 L1197 396 L1197 395 L1197 394 L1197 393 L1197 392 L1197 391 L1197 390 L1197 389 L1197 388 L1197 387 L1197 386 L1197 385 L1197 384 L1197 383 L1197 382 L1197 381 L1197 380 L1197 379 L1197 378 L1197 377 L1197 376 L1197 375 L1197 374 L1197 373 L1197 372 L1197 371 L1197 370 L1197 369 L1197 368 L1197 367 L1197 366 L1197 365 L1197 364 L1197 363 L1197 362 L1197 361 L1197 360 L1197 359 L1197 358 L1197 357 L1197 356 L1197 355 L1197 354 L1197 353 L1197 352 L1197 351 L1197 350 L1197 349 L1197 348 L1197 347 L1197 346 L1197 345 L1197 344 L1197 343 L1197 342 L1197 341 L1197 340 L1197 339 L1197 338 L1197 337 L1197 336 L1197 335 L1197 334 L1197 333 L1197 332 L1197 331 L1197 330 L1197 329 L1197 328 L1197 327 L1197 326 L1197 325 L1197 324 L1197 323 L1197 322 L1197 321 L1197 320 L1197 319 L1197 318 L1197 317 L1197 316 L1197 315 L1197 314 L1197 313 L1197 312 L1197 311 L1197 310 L1197 309 L1197 308 L1197 307 L1197 306 L1197 305 L1197 304 L1197 303 L1197 302 L1197 301 L1197 300 L1197 299 L1197 298 L1197 297 L1197 296 L1197 295 L1197 294 L1197 293 L1197 292 L1197 291 L1197 290 L1197 289 L1197 288 L1197 287 L1197 286 L1197 285 L1197 284 L1197 283 L1197 282 L1197 281 L1197 280 L1197 279 L1197 278 L1197 277 L1197 276 L1197 275 L1197 274 L1197 273 L1197 272 L1197 271 L1197 270 L1197 269 L1197 268 L1197 267 L1197 266 L1197 265 L1197 264 L1197 263 L1197 262 L1197 261 L1197 260 L1197 259 L1197 258 L1197 257 L1197 256 L1197 255 L1197 254 L1197 253 L1197 252 L1197 251 L1197 250 L1197 249 L1197 248 L1197 247 L1197 246 L1197 245 L1197 244 L1197 243 L1197 242 L1197 241 L1197 240 L1197 239 L1197 238 L1197 237 L1197 236 L1197 235 L1197 234 L1197 233 L1197 232 L1197 231 L1197 230 L1197 229 L1197 228 L1197 227 L1197 226 L1197 225 L1197 224 L1197 223 L1197 222 L1197 221 L1197 220 L1197 219 L1197 218 L1197 217 L1197 216 L1197 215 L1197 214 L1197 213 L1197 212 L1197 211 L1197 210 L1197 209 L1197 208 L1197 207 L1197 206 L1197 205 L1197 204 L1197 203 L1197 202 L1197 201 L1197 200 L1197 199 L1197 198 L1197 197 L1197 196 L1197 195 L1197 194 L1197 193 L1197 192 L1197 191 L1197 190 L1197 189 L1197 188 L1197 187 L1197 186 L1197 185 L1197 184 L1197 183 L1197 182 L1197 181 L1197 180 L1197 179 L1197 178 L1197 177 L1197 176 L1197 175 L1197 174 L1197 173 L1197 172 L1197 171 L1197 170 L1197 169 L1197 168 L1197 167 L1197 166 L1197 165 L1197 164 L1197 163 L1197 162 L1197 161 L1197 160 L1197 159 L1197 158 L1197 157 L1197 156 L1197 155 L1197 154 L1197 153 L1197 152 L1197 151 L1197 150 L1197 149 L1197 148 L1197 147 L1197 146 L1197 145 L1197 144 L1197 143 L1197 142 L1197 141 L1197 140 L1197 139 L1197 138 L1197 137 L1197 136 L1197 135 L1197 134 L1197 133 L1197 132 L1197 131 L1197 130 L1197 129 L1197 128 L1197 127 L1197 126 L1197 125 L1197 124 L1197 123 L1197 122 L1197 121 L1197 120 L1197 119 L1197 118 L1197 117 L1197 116 L1197 115 L1197 114 L1197 113 L1197 112 L1197 111 L1197 110 L1197 109 L1197 108 L1197 107 L1197 106 L1197 105 L1197 104 L1197 103 L1197 102 L1197 101 L1197 100 L1197 99 L1197 98 L1197 97 L1197 96 L1197 95 L1197 94 L1197 93 L1197 92 L1197 91 L1197 90 L1197 89 L1197 88 L1197 87 L1197 86 L1197 85 L1197 84 L1197 83 L1197 82 L1197 81 L1197 80 L1197 79 L1197 78 L1197 77 L1197 76 L1197 75 L1197 74 L1197 73 L1197 72 L1197 71 L1197 70 L1197 69 L1197 68 L1197 67 L1197 66 L1197 65 L1197 64 L1197 63 L1197 62 L1197 61 L1197 60 L1197 59 L1197 58 L1197 57 L1197 56 L1197 55 L1197 54 L1197 53 L1197 52 L1197 51 L1197 50 L1197 49 L1197 48 L1197 47 L1197 46 L1197 45 L1197 44 L1197 43 L1197 42 L1197 41 L1197 40 L1197 39 L1197 38 L1197 37 L1197 36 L1197 35 L1197 34 L1197 33 L1197 32 L1197 31 L1197 30 L1197 29 L1197 28 L1197 27 L1197 26 L1197 25 L1197 24 L1197 23 L1197 22 L1197 21 L1197 20 L1197 19 L1197 18 L1197 17 L1197 16 L1197 15 L1197 14 L1197 13 L1197 12 L1197 11 L1197 10 L1197 9 L1197 8 L1197 7 L1197 6 L1197 5 L1197 4 L1197 3 L1197 2 L1197 1 L1197 0 L1196 0 L1195 0 L1194 0 L1193 0 L1192 0 L1191 0 L1190 0 L1189 0 L1188 0 L1187 0 L1186 0 L1185 0 L1184 0 L1183 0 L1182 0 L1181 0 L1180 0 L1179 0 L1178 0 L1177 0 L1176 0 L1175 0 L1174 0 L1173 0 L1172 0 L1171 0 L1170 0 L1169 0 L1168 0 L1167 0 L1166 0 L1165 0 L1164 0 L1163 0 L1162 0 L1161 0 L1160 0 L1159 0 L1158 0 L1157 0 L1156 0 L1155 0 L1154 0 L1153 0 L1152 0 L1151 0 L1150 0 L1149 0 L1148 0 L1147 0 L1146 0 L1145 0 L1144 0 L1143 0 L1142 0 L1141 0 L1140 0 L1139 0 L1138 0 L1137 0 L1136 0 L1135 0 L1134 0 L1133 0 L1132 0 L1131 0 L1130 0 L1129 0 L1128 0 L1127 0 L1126 0 L1125 0 L1124 0 L1123 0 L1122 0 L1121 0 L1120 0 L1119 0 L1118 0 L1117 0 L1116 0 L1115 0 L1114 0 L1113 0 L1112 0 L1111 0 L1110 0 L1109 0 L1108 0 L1107 0 L1106 0 L1105 0 L1104 0 L1103 0 L1102 0 L1101 0 L1100 0 L1099 0 L1098 0 L1097 0 L1096 0 L1095 0 L1094 0 L1093 0 L1092 0 L1091 0 L1090 0 L1089 0 L1088 0 L1087 0 L1086 0 L1085 0 L1084 0 L1083 0 L1082 0 L1081 0 L1080 0 L1079 0 L1078 0 L1077 0 L1076 0 L1075 0 L1074 0 L1073 0 L1072 0 L1071 0 L1070 0 L1069 0 L1068 0 L1067 0 L1066 0 L1065 0 L1064 0 L1063 0 L1062 0 L1061 0 L1060 0 L1059 0 L1058 0 L1057 0 L1056 0 L1055 0 L1054 0 L1053 0 L1052 0 L1051 0 L1050 0 L1049 0 L1048 0 L1047 0 L1046 0 L1045 0 L1044 0 L1043 0 L1042 0 L1041 0 L1040 0 L1039 0 L1038 0 L1037 0 L1036 0 L1035 0 L1034 0 L1033 0 L1032 0 L1031 0 L1030 0 L1029 0 L1028 0 L1027 0 L1026 0 L1025 0 L1024 0 L1023 0 L1022 0 L1021 0 L1020 0 L1019 0 L1018 0 L1017 0 L1016 0 L1015 0 L1014 0 L1013 0 L1012 0 L1011 0 L1010 0 L1009 0 L1008 0 L1007 0 L1006 0 L1005 0 L1004 0 L1003 0 L1002 0 L1001 0 L1000 0 L999 0 L998 0 L997 0 L996 0 L995 0 L994 0 L993 0 L992 0 L991 0 L990 0 L989 0 L988 0 L987 0 L986 0 L985 0 L984 0 L983 0 L982 0 L981 0 L980 0 L979 0 L978 0 L977 0 L976 0 L975 0 L974 0 L973 0 L972 0 L971 0 L970 0 L969 0 L968 0 L967 0 L966 0 L965 0 L964 0 L963 0 L962 0 L961 0 L960 0 L959 0 L958 0 L957 0 L956 0 L955 0 L954 0 L953 0 L952 0 L951 0 L950 0 L949 0 L948 0 L947 0 L946 0 L945 0 L944 0 L943 0 L942 0 L941 0 L940 0 L939 0 L938 0 L937 0 L936 0 L935 0 L934 0 L933 0 L932 0 L931 0 L930 0 L929 0 L928 0 L927 0 L926 0 L925 0 L924 0 L923 0 L922 0 L921 0 L920 0 L919 0 L918 0 L917 0 L916 0 L915 0 L914 0 L913 0 L912 0 L911 0 L910 0 L909 0 L908 0 L907 0 L906 0 L905 0 L904 0 L903 0 L902 0 L901 0 L900 0 L899 0 L898 0 L897 0 L896 0 L895 0 L894 0 L893 0 L892 0 L891 0 L890 0 L889 0 L888 0 L887 0 L886 0 L885 0 L884 0 L883 0 L882 0 L881 0 L880 0 L879 0 L878 0 L877 0 L876 0 L875 0 L874 0 L873 0 L872 0 L871 0 L870 0 L869 0 L868 0 L867 0 L866 0 L865 0 L864 0 L863 0 L862 0 L861 0 L860 0 L859 0 L858 0 L857 0 L856 0 L855 0 L854 0 L853 0 L852 0 L851 0 L850 0 L849 0 L848 0 L847 0 L846 0 L845 0 L844 0 L843 0 L842 0 L841 0 L840 0 L839 0 L838 0 L837 0 L836 0 L835 0 L834 0 L833 0 L832 0 L831 0 L830 0 L829 0 L828 0 L827 0 L826 0 L825 0 L824 0 L823 0 L822 0 L821 0 L820 0 L819 0 L818 0 L817 0 L816 0 L815 0 L814 0 L813 0 L812 0 L811 0 L810 0 L809 0 L808 0 L807 0 L806 0 L805 0 L804 0 L803 0 L802 0 L801 0 L800 0 L799 0 L798 0 L797 0 L796 0 L795 0 L794 0 L793 0 L792 0 L791 0 L790 0 L789 0 L788 0 L787 0 L786 0 L785 0 L784 0 L783 0 L782 0 L781 0 L780 0 L779 0 L778 0 L777 0 L776 0 L775 0 L774 0 L773 0 L772 0 L771 0 L770 0 L769 0 L768 0 L767 0 L766 0 L765 0 L764 0 L763 0 L762 0 L761 0 L760 0 L759 0 L758 0 L757 0 L756 0 L755 0 L754 0 L753 0 L752 0 L751 0 L750 0 L749 0 L748 0 L747 0 L746 0 L745 0 L744 0 L743 0 L742 0 L741 0 L740 0 L739 0 L738 0 L737 0 L736 0 L735 0 L734 0 L733 0 L732 0 L731 0 L730 0 L729 0 L728 0 L727 0 L726 0 L725 0 L724 0 L723 0 L722 0 L721 0 L720 0 L719 0 L718 0 L717 0 L716 0 L715 0 L714 0 L713 0 L712 0 L711 0 L710 0 L709 0 L708 0 L707 0 L706 0 L705 0 L704 0 L703 0 L702 0 L701 0 L700 0 L699 0 L698 0 L697 0 L696 0 L695 0 L694 0 L693 0 L692 0 L691 0 L690 0 L689 0 L688 0 L687 0 L686 0 L685 0 L684 0 L683 0 L682 0 L681 0 L680 0 L679 0 L678 0 L677 0 L676 0 L675 0 L674 0 L673 0 L672 0 L671 0 L670 0 L669 0 L668 0 L667 0 L666 0 L665 0 L664 0 L663 0 L662 0 L661 0 L660 0 L659 0 L658 0 L657 0 L656 0 L655 0 L654 0 L653 0 L652 0 L651 0 L650 0 L649 0 L648 0 L647 0 L646 0 L645 0 L644 0 L643 0 L642 0 L641 0 L640 0 L639 0 L638 0 L637 0 L636 0 L635 0 L634 0 L633 0 L632 0 L631 0 L630 0 L629 0 L628 0 L627 0 L626 0 L625 0 L624 0 L623 0 L622 0 L621 0 L620 0 L619 0 L618 0 L617 0 L616 0 L615 0 L614 0 L613 0 L612 0 L611 0 L610 0 L609 0 L608 0 L607 0 L606 0 L605 0 L604 0 L603 0 L602 0 L601 0 L600 0 L599 0 L598 0 L597 0 L596 0 L595 0 L594 0 L593 0 L592 0 L591 0 L590 0 L589 0 L588 0 L587 0 L586 0 L585 0 L584 0 L583 0 L582 0 L581 0 L580 0 L579 0 L578 0 L577 0 L576 0 L575 0 L574 0 L573 0 L572 0 L571 0 L570 0 L569 0 L568 0 L567 0 L566 0 L565 0 L564 0 L563 0 L562 0 L561 0 L560 0 L559 0 L558 0 L557 0 L556 0 L555 0 L554 0 L553 0 L552 0 L551 0 L550 0 L549 0 L548 0 L547 0 L546 0 L545 0 L544 0 L543 0 L542 0 L541 0 L540 0 L539 0 L538 0 L537 0 L536 0 L535 0 L534 0 L533 0 L532 0 L531 0 L530 0 L529 0 L528 0 L527 0 L526 0 L525 0 L524 0 L523 0 L522 0 L521 0 L520 0 L519 0 L518 0 L517 0 L516 0 L515 0 L514 0 L513 0 L512 0 L511 0 L510 0 L509 0 L508 0 L507 0 L506 0 L505 0 L504 0 L503 0 L502 0 L501 0 L500 0 L499 0 L498 0 L497 0 L496 0 L495 0 L494 0 L493 0 L492 0 L491 0 L490 0 L489 0 L488 0 L487 0 L486 0 L485 0 L484 0 L483 0 L482 0 L481 0 L480 0 L479 0 L478 0 L477 0 L476 0 L475 0 L474 0 L473 0 L472 0 L471 0 L470 0 L469 0 L468 0 L467 0 L466 0 L465 0 L464 0 L463 0 L462 0 L461 0 L460 0 L459 0 L458 0 L457 0 L456 0 L455 0 L454 0 L453 0 L452 0 L451 0 L450 0 L449 0 L448 0 L447 0 L446 0 L445 0 L444 0 L443 0 L442 0 L441 0 L440 0 L439 0 L438 0 L437 0 L436 0 L435 0 L434 0 L433 0 L432 0 L431 0 L430 0 L429 0 L428 0 L427 0 L426 0 L425 0 L424 0 L423 0 L422 0 L421 0 L420 0 L419 0 L418 0 L417 0 L416 0 L415 0 L414 0 L413 0 L412 0 L411 0 L410 0 L409 0 L408 0 L407 0 L406 0 L405 0 L404 0 L403 0 L402 0 L401 0 L400 0 L399 0 L398 0 L397 0 L396 0 L395 0 L394 0 L393 0 L392 0 L391 0 L390 0 L389 0 L388 0 L387 0 L386 0 L385 0 L384 0 L383 0 L382 0 L381 0 L380 0 L379 0 L378 0 L377 0 L376 0 L375 0 L374 0 L373 0 L372 0 L371 0 L370 0 L369 0 L368 0 L367 0 L366 0 L365 0 L364 0 L363 0 L362 0 L361 0 L360 0 L359 0 L358 0 L357 0 L356 0 L355 0 L354 0 L353 0 L352 0 L351 0 L350 0 L349 0 L348 0 L347 0 L346 0 L345 0 L344 0 L343 0 L342 0 L341 0 L340 0 L339 0 L338 0 L337 0 L336 0 L335 0 L334 0 L333 0 L332 0 L331 0 L330 0 L329 0 L328 0 L327 0 L326 0 L325 0 L324 0 L323 0 L322 0 L321 0 L320 0 L319 0 L318 0 L317 0 L316 0 L315 0 L314 0 L313 0 L312 0 L311 0 L310 0 L309 0 L308 0 L307 0 L306 0 L305 0 L304 0 L303 0 L302 0 L301 0 L300 0 L299 0 L298 0 L297 0 L296 0 L295 0 L294 0 L293 0 L292 0 L291 0 L290 0 L289 0 L288 0 L287 0 L286 0 L285 0 L284 0 L283 0 L282 0 L281 0 L280 0 L279 0 L278 0 L277 0 L276 0 L275 0 L274 0 L273 0 L272 0 L271 0 L270 0 L269 0 L268 0 L267 0 L266 0 L265 0 L264 0 L263 0 L262 0 L261 0 L260 0 L259 0 L258 0 L257 0 L256 0 L255 0 L254 0 L253 0 L252 0 L251 0 L250 0 L249 0 L248 0 L247 0 L246 0 L245 0 L244 0 L243 0 L242 0 L241 0 L240 0 L239 0 L238 0 L237 0 L236 0 L235 0 L234 0 L233 0 L232 0 L231 0 L230 0 L229 0 L228 0 L227 0 L226 0 L225 0 L224 0 L223 0 L222 0 L221 0 L220 0 L219 0 L218 0 L217 0 L216 0 L215 0 L214 0 L213 0 L212 0 L211 0 L210 0 L209 0 L208 0 L207 0 L206 0 L205 0 L204 0 L203 0 L202 0 L201 0 L200 0 L199 0 L198 0 L197 0 L196 0 L195 0 L194 0 L193 0 L192 0 L191 0 L190 0 L189 0 L188 0 L187 0 L186 0 L185 0 L184 0 L183 0 L182 0 L181 0 L180 0 L179 0 L178 0 L177 0 L176 0 L175 0 L174 0 L173 0 L172 0 L171 0 L170 0 L169 0 L168 0 L167 0 L166 0 L165 0 L164 0 L163 0 L162 0 L161 0 L160 0 L159 0 L158 0 L157 0 L156 0 L155 0 L154 0 L153 0 L152 0 L151 0 L150 0 L149 0 L148 0 L147 0 L146 0 L145 0 L144 0 L143 0 L142 0 L141 0 L140 0 L139 0 L138 0 L137 0 L136 0 L135 0 L134 0 L133 0 L132 0 L131 0 L130 0 L129 0 L128 0 L127 0 L126 0 L125 0 L124 0 L123 0 L122 0 L121 0 L120 0 L119 0 L118 0 L117 0 L116 0 L115 0 L114 0 L113 0 L112 0 L111 0 L110 0 L109 0 L108 0 L107 0 L106 0 L105 0 L104 0 L103 0 L102 0 L101 0 L100 0 L99 0 L98 0 L97 0 L96 0 L95 0 L94 0 L93 0 L92 0 L91 0 L90 0 L89 0 L88 0 L87 0 L86 0 L85 0 L84 0 L83 0 L82 0 L81 0 L80 0 L79 0 L78 0 L77 0 L76 0 L75 0 L74 0 L73 0 L72 0 L71 0 L70 0 L69 0 L68 0 L67 0 L66 0 L65 0 L64 0 L63 0 L62 0 L61 0 L60 0 L59 0 L58 0 L57 0 L56 0 L55 0 L54 0 L53 0 L52 0 L51 0 L50 0 L49 0 L48 0 L47 0 L46 0 L45 0 L44 0 L43 0 L42 0 L41 0 L40 0 L39 0 L38 0 L37 0 L36 0 L35 0 L34 0 L33 0 L32 0 L31 0 L30 0 L29 0 L28 0 L27 0 L26 0 L25 0 L24 0 L23 0 L22 0 L21 0 L20 0 L19 0 L18 0 L17 0 L16 0 L15 0 L14 0 L13 0 L12 0 L11 0 L10 0 L9 0 L8 0 L7 0 L6 0 L5 0 L4 0 L3 0 L2 0 L1 0 Z" fill="#cccccc" stroke="black" stroke-width="1" />
</svg>
